<svg width="160" height="30" viewBox="0 0 160 30" fill="none" xmlns="http://www.w3.org/2000/svg">
<g id="logo">
<mask id="mask0_0_166" style="mask-type:alpha" maskUnits="userSpaceOnUse" x="0" y="0" width="160" height="30">
<rect id="Mask" width="160" height="30" fill="white"/>
</mask>
<g mask="url(#mask0_0_166)">
<g id="Group 3">
<g id="Group">
<path id="Shape" fill-rule="evenodd" clip-rule="evenodd" d="M11.7743 22.253C11.8705 22.0099 12.093 21.6188 12.4407 21.102C12.7808 20.5965 13.2166 20.0057 13.7121 19.3736C14.703 18.1093 15.9156 16.7013 17.0405 15.512C17.8024 14.7066 18.4978 14.03 19.0452 13.5647C18.3056 15.8636 18.8426 17.9767 19.3365 19.8433C19.3437 19.8709 19.351 19.8983 19.3582 19.9257C19.8931 21.9466 20.3401 23.6354 19.6546 25.3666C18.7939 27.5403 16.332 28.6054 14.156 27.7456C11.9799 26.8858 10.9136 24.4267 11.7743 22.253Z" stroke="#2C2C2E" stroke-width="1.37726"/>
<path id="Path" fill-rule="evenodd" clip-rule="evenodd" d="M18.8585 12.8232C20.0588 11.7127 21.1348 10.8358 21.7469 10.5335C24.1871 9.32846 27.1432 10.3276 28.3495 12.7651C29.5558 15.2026 28.5557 18.1555 26.1155 19.3606C24.2383 20.2876 22.3111 19.9444 20.3283 19.5913C20.2085 19.5699 20.0884 19.5485 19.9682 19.5274C19.841 19.0442 19.717 18.5573 19.6154 18.0651C19.8821 18.1088 20.1417 18.1547 20.3934 18.1994C22.5434 18.5811 24.0489 18.8398 25.5025 18.122C27.2578 17.2551 27.9774 15.1309 27.1096 13.3774C26.2418 11.624 24.1153 10.9052 22.3599 11.7721C22.1958 11.8531 21.8722 12.0671 21.3917 12.4507C20.9324 12.8173 20.3921 13.288 19.8101 13.8261C19.7537 13.8783 19.697 13.9309 19.64 13.9842C19.7008 13.7727 19.773 13.5597 19.858 13.3451C20.4084 11.9552 19.8804 12.0097 18.8585 12.8232Z" fill="#2C2C2E"/>
<path id="Shape_2" fill-rule="evenodd" clip-rule="evenodd" d="M19.7522 7.7759C19.6542 8.0182 19.4289 8.4077 19.0774 8.92197C18.7336 9.42497 18.2935 10.0125 17.7933 10.641C16.7931 11.8979 15.5702 13.297 14.4366 14.478C13.6688 15.2778 12.9685 15.9492 12.4177 16.4105C13.1742 14.1171 12.6527 12.0002 12.1726 10.1299C12.1655 10.1024 12.1584 10.0749 12.1514 10.0474C11.6314 8.02263 11.1969 6.33061 11.895 4.60453C12.7718 2.43719 15.2413 1.39014 17.411 2.26589C19.5807 3.14163 20.6289 5.60852 19.7522 7.7759Z" stroke="#2C2C2E" stroke-width="1.37726"/>
<path id="Path_2" fill-rule="evenodd" clip-rule="evenodd" d="M12.6023 17.1508C11.3926 18.2538 10.3088 19.1241 9.6939 19.4222C7.24494 20.6093 4.29627 19.5885 3.10788 17.1422C1.91949 14.6959 2.94139 11.7504 5.39036 10.5633C7.27434 9.65006 9.19891 10.0074 11.179 10.3751C11.2987 10.3973 11.4187 10.4196 11.5388 10.4416C11.6624 10.9257 11.7828 11.4135 11.8808 11.9065C11.6144 11.8608 11.3551 11.813 11.1038 11.7665C8.95662 11.369 7.45307 11.0992 5.99422 11.8064C4.23252 12.6603 3.4974 14.7792 4.35229 16.539C5.20717 18.2988 7.32833 19.0331 9.09003 18.1791C9.25466 18.0993 9.57984 17.8877 10.0632 17.5076C10.5251 17.1444 11.0689 16.6777 11.6549 16.1439C11.7116 16.0922 11.7686 16.04 11.8259 15.9873C11.7636 16.1981 11.6898 16.4104 11.6034 16.6242C11.0422 18.0114 11.5723 17.9592 12.6023 17.1508Z" fill="#2C2C2E"/>
</g>
<path id="Shape_3" fill-rule="evenodd" clip-rule="evenodd" d="M71.1306 11.7372V5.93402H73.0227V22.2318H71.5535L71.3085 20.5198C70.1958 21.7427 68.5707 22.4764 66.679 22.4764C63.073 22.4764 60.4687 19.786 60.4687 16.2285C60.4687 12.6266 63.073 9.95842 66.679 9.95842C68.4596 9.95842 70.0175 10.6254 71.1306 11.7372ZM62.4052 16.2285C62.4052 18.7632 64.2749 20.6532 66.8125 20.6532C69.372 20.6532 71.2418 18.741 71.2418 16.2285C71.2418 13.6938 69.372 11.7816 66.8125 11.7816C64.2749 11.7816 62.4052 13.6716 62.4052 16.2285ZM40.9008 9.95842C39.0534 9.95842 37.5175 10.7589 36.6049 12.0929V10.203H36.2865L34.8911 11.597V22.2096H36.783V15.6727C36.783 13.427 38.3634 11.6705 40.4334 11.6705C42.5034 11.6705 43.6609 13.049 43.6609 15.4726V22.2096H45.553V15.0279C45.553 12.0929 43.772 9.95842 40.9008 9.95842ZM53.3939 22.4764C57.0222 22.4764 59.76 19.8083 59.76 16.2063C59.76 12.6266 57.0222 9.95842 53.3939 9.95842C49.7436 9.95842 47.0057 12.6043 47.0057 16.2063C47.0057 19.8083 49.7436 22.4764 53.3939 22.4764ZM53.3939 20.6532C50.8119 20.6532 48.9422 18.7855 48.9422 16.2063C48.9422 13.6493 50.8119 11.7816 53.3939 11.7816C55.9538 11.7816 57.8235 13.6493 57.8235 16.2285C57.8235 18.7855 55.9538 20.6532 53.3939 20.6532ZM75.5611 8.13521H77.6091V5.97846H75.5611V8.13521ZM75.6279 22.2096H77.52V10.203H75.6279V22.2096ZM82.5621 17.9628C82.5621 19.5859 83.4526 20.4753 85.0997 20.4753H86.4127V22.2096H84.8547C82.2728 22.2096 80.67 20.6309 80.67 18.0295V11.9151H78.5557V11.5815L82.2728 7.66828H82.5621V10.203H86.3459V11.9151H82.5621V17.9628Z" fill="#2C2C2E"/>
<path id="Shape_4" fill-rule="evenodd" clip-rule="evenodd" d="M158.019 21.1395H157.69V22.1686H157.541V21.1395H157.212V21.0015H158.019V21.1395ZM159.347 22.1686H159.198V21.2031L158.8 22.1686H158.758L158.359 21.2031V22.1686H158.211V21.0015H158.439L158.779 21.8503L159.118 21.0015H159.347V22.1686Z" fill="#2C2C2E"/>
<path id="Shape_5" opacity="0.3" fill-rule="evenodd" clip-rule="evenodd" d="M98.3554 9.95842C96.6196 9.95842 95.1727 10.6699 94.2379 11.8483V5.93402H92.3458V22.2096H94.2379V15.6727C94.2379 13.427 95.8182 11.6705 97.8882 11.6705C99.9581 11.6705 101.116 13.049 101.116 15.4726V22.2096H103.008V15.0279C103.008 11.9151 101.227 9.95842 98.3554 9.95842ZM110.604 9.95842C114.254 9.95842 116.658 12.76 116.658 16.273C116.658 16.4953 116.636 16.7176 116.614 16.9399V16.94H106.375C106.664 19.1635 108.333 20.6309 110.604 20.6309C112.273 20.6309 113.609 19.8527 114.343 18.5631H116.347C115.323 21.0312 113.208 22.4764 110.604 22.4764C107.109 22.4764 104.483 19.786 104.483 16.2063C104.483 12.6488 107.109 9.95842 110.604 9.95842ZM114.766 15.2058C114.365 13.0712 112.741 11.7372 110.604 11.7372C108.422 11.7372 106.797 13.1157 106.419 15.2058H114.766ZM128.533 10.203L128.288 12.0485C127.175 10.7366 125.506 9.95842 123.547 9.95842C119.986 9.95842 117.315 12.6266 117.315 16.2285C117.315 19.786 119.986 22.4764 123.547 22.4764C125.506 22.4764 127.153 21.6982 128.266 20.4086L128.466 22.2096H130.024V10.203H128.533ZM123.681 20.6532C121.143 20.6532 119.251 18.741 119.251 16.2063C119.251 13.6938 121.143 11.7816 123.681 11.7816C126.241 11.7816 128.088 13.6716 128.088 16.2063C128.088 18.7632 126.241 20.6532 123.681 20.6532ZM134.518 22.2096H132.626V5.93402H134.518V22.2096ZM142.098 20.4753C140.451 20.4753 139.56 19.5859 139.56 17.9628V11.9151H143.344V10.203H139.56V7.66828H139.271L135.554 11.5815V11.9151H137.669V18.0295C137.669 20.6309 139.271 22.2096 141.853 22.2096H143.411V20.4753H142.098ZM146.62 11.8483C147.555 10.6699 149.001 9.95842 150.738 9.95842C153.609 9.95842 155.39 11.9151 155.39 15.0279V22.2096H153.497V15.4726C153.497 13.049 152.34 11.6705 150.27 11.6705C148.2 11.6705 146.62 13.427 146.62 15.6727V22.2096H144.728V5.93402H146.62V11.8483Z" fill="#2C2C2E"/>
</g>
</g>
</g>
</svg>
