<svg width="192" height="36" viewBox="0 0 192 36" fill="none" xmlns="http://www.w3.org/2000/svg">
<g id="logo">
<mask id="mask0_0_166" style="mask-type:alpha" maskUnits="userSpaceOnUse" x="0" y="0" width="192" height="36">
<rect id="Mask" width="192" height="36" fill="white"/>
</mask>
<g mask="url(#mask0_0_166)">
<g id="Group 3">
<g id="Group">
<path id="Shape" fill-rule="evenodd" clip-rule="evenodd" d="M14.1292 26.7036C14.2446 26.4119 14.5116 25.9425 14.9288 25.3224C15.3369 24.7157 15.8599 24.0069 16.4545 23.2483C17.6436 21.7312 19.0987 20.0416 20.4486 18.6144C21.3629 17.6479 22.1973 16.8361 22.8542 16.2777C21.9667 19.0363 22.6111 21.5721 23.2037 23.812C23.2125 23.845 23.2212 23.878 23.2299 23.9108C23.8717 26.336 24.4081 28.3625 23.5855 30.4399C22.5526 33.0483 19.5984 34.3265 16.9872 33.2948C14.3759 32.263 13.0963 29.312 14.1292 26.7036Z" stroke="#2C2C2E" stroke-width="1.37726"/>
<path id="Path" fill-rule="evenodd" clip-rule="evenodd" d="M22.6302 15.3878C24.0705 14.0553 25.3618 13.003 26.0963 12.6402C29.0245 11.1942 32.5718 12.3931 34.0194 15.3181C35.467 18.2432 34.2668 21.7866 31.3386 23.2327C29.0859 24.3451 26.7733 23.9333 24.394 23.5095C24.2502 23.4839 24.1061 23.4582 23.9618 23.4329C23.8092 22.8531 23.6604 22.2688 23.5385 21.6781C23.8585 21.7305 24.17 21.7857 24.4721 21.8393C27.0521 22.2973 28.8586 22.6078 30.603 21.7464C32.7094 20.7062 33.5729 18.1571 32.5315 16.053C31.4901 13.9488 28.9383 13.0863 26.8319 14.1265C26.635 14.2237 26.2467 14.4806 25.67 14.9409C25.1189 15.3808 24.4705 15.9456 23.7721 16.5914C23.7044 16.6539 23.6364 16.7171 23.568 16.781C23.6409 16.5272 23.7276 16.2717 23.8296 16.0141C24.4901 14.3462 23.8565 14.4117 22.6302 15.3878Z" fill="#2C2C2E"/>
<path id="Shape_2" fill-rule="evenodd" clip-rule="evenodd" d="M23.7027 9.33107C23.5851 9.62184 23.3147 10.0892 22.8929 10.7064C22.4803 11.31 21.9522 12.0149 21.352 12.7692C20.1517 14.2775 18.6843 15.9564 17.3239 17.3736C16.4026 18.3334 15.5622 19.1391 14.9012 19.6926C15.809 16.9406 15.1832 14.4002 14.6071 12.1559C14.5986 12.1228 14.5901 12.0898 14.5817 12.0569C13.9577 9.62716 13.4362 7.59673 14.2741 5.52543C15.3261 2.92462 18.2896 1.66816 20.8932 2.71906C23.4969 3.76995 24.7547 6.73022 23.7027 9.33107Z" stroke="#2C2C2E" stroke-width="1.37726"/>
<path id="Path_2" fill-rule="evenodd" clip-rule="evenodd" d="M15.1227 20.5809C13.6711 21.9046 12.3705 22.949 11.6327 23.3066C8.69392 24.7312 5.15552 23.5062 3.72945 20.5707C2.30338 17.6351 3.52966 14.1005 6.46842 12.676C8.72921 11.5801 11.0387 12.0089 13.4148 12.4501C13.5585 12.4768 13.7024 12.5035 13.8466 12.53C13.9949 13.1109 14.1394 13.6962 14.2569 14.2878C13.9373 14.233 13.6262 14.1756 13.3245 14.1198C10.7479 13.6428 8.94368 13.319 7.19306 14.1677C5.07902 15.1924 4.19688 17.735 5.22274 19.8468C6.2486 21.9585 8.79399 22.8397 10.908 21.815C11.1056 21.7192 11.4958 21.4652 12.0759 21.0092C12.6302 20.5733 13.2827 20.0133 13.9858 19.3727C14.0539 19.3107 14.1223 19.248 14.1911 19.1847C14.1163 19.4377 14.0278 19.6925 13.9241 19.949C13.2507 21.6138 13.8868 21.5511 15.1227 20.5809Z" fill="#2C2C2E"/>
</g>
<path id="Shape_3" fill-rule="evenodd" clip-rule="evenodd" d="M85.3568 14.0846V7.12082H87.6273V26.6782H85.8642L85.5702 24.6237C84.2349 26.0912 82.2848 26.9716 80.0148 26.9716C75.6876 26.9716 72.5624 23.7432 72.5624 19.4742C72.5624 15.1519 75.6876 11.9501 80.0148 11.9501C82.1515 11.9501 84.021 12.7505 85.3568 14.0846ZM74.8862 19.4742C74.8862 22.5159 77.1299 24.7838 80.175 24.7838C83.2464 24.7838 85.4901 22.4892 85.4901 19.4742C85.4901 16.4326 83.2464 14.138 80.175 14.138C77.1299 14.138 74.8862 16.4059 74.8862 19.4742ZM49.081 11.9501C46.8641 11.9501 45.021 12.9106 43.9259 14.5115V12.2436H43.5439L41.8693 13.9164V26.6515H44.1396V18.8072C44.1396 16.1124 46.0361 14.0046 48.5201 14.0046C51.0041 14.0046 52.3931 15.6588 52.3931 18.5671V26.6515H54.6636V18.0334C54.6636 14.5115 52.5264 11.9501 49.081 11.9501ZM64.0726 26.9716C68.4266 26.9716 71.712 23.7699 71.712 19.4475C71.712 15.1519 68.4266 11.9501 64.0726 11.9501C59.6923 11.9501 56.4069 15.1252 56.4069 19.4475C56.4069 23.7699 59.6923 26.9716 64.0726 26.9716ZM64.0726 24.7838C60.9743 24.7838 58.7306 22.5426 58.7306 19.4475C58.7306 16.3792 60.9743 14.138 64.0726 14.138C67.1446 14.138 69.3883 16.3792 69.3883 19.4742C69.3883 22.5426 67.1446 24.7838 64.0726 24.7838ZM90.6733 9.76224H93.1309V7.17414H90.6733V9.76224ZM90.7534 26.6515H93.0239V12.2436H90.7534V26.6515ZM99.0746 21.5554C99.0746 23.5031 100.143 24.5703 102.12 24.5703H103.695V26.6515H101.826C98.7273 26.6515 96.8041 24.7571 96.8041 21.6354V14.2981H94.2669V13.8978L98.7273 9.20192H99.0746V12.2436H103.615V14.2981H99.0746V21.5554Z" fill="#2C2C2E"/>
<path id="Shape_4" fill-rule="evenodd" clip-rule="evenodd" d="M191.216 26.6023H191.038V25.4438L190.56 26.6023H190.509L190.031 25.4438V26.6023H189.853V25.2018H190.127L190.535 26.2204L190.942 25.2018H191.216V26.6023ZM189.623 25.3674H189.228V26.6023H189.049V25.3674H188.655V25.2019H189.623V25.3674Z" fill="#2C2C2E"/>
<path id="Shape_5" opacity="0.3" fill-rule="evenodd" clip-rule="evenodd" d="M118.026 11.9501C115.943 11.9501 114.207 12.8039 113.085 14.218V7.12082H110.815V26.6515H113.085V18.8072C113.085 16.1124 114.982 14.0046 117.466 14.0046C119.95 14.0046 121.339 15.6588 121.339 18.5671V26.6515H123.609V18.0334C123.609 14.2981 121.472 11.9501 118.026 11.9501ZM132.724 11.9501C137.105 11.9501 139.99 15.3119 139.99 19.5276C139.99 19.7943 139.963 20.0611 139.936 20.3278V20.328H127.649C127.997 22.9962 130 24.7571 132.724 24.7571C134.728 24.7571 136.331 23.8233 137.212 22.2757H139.616C138.387 25.2374 135.849 26.9716 132.724 26.9716C128.531 26.9716 125.379 23.7432 125.379 19.4475C125.379 15.1785 128.531 11.9501 132.724 11.9501ZM137.72 18.2469C137.238 15.6855 135.289 14.0846 132.724 14.0846C130.107 14.0846 128.157 15.7389 127.703 18.2469H137.72ZM154.24 12.2436L153.946 14.4581C152.61 12.8839 150.607 11.9501 148.257 11.9501C143.983 11.9501 140.778 15.1519 140.778 19.4742C140.778 23.7432 143.983 26.9716 148.257 26.9716C150.607 26.9716 152.584 26.0378 153.919 24.4903L154.16 26.6515H156.029V12.2436H154.24ZM148.417 24.7838C145.372 24.7838 143.102 22.4892 143.102 19.4476C143.102 16.4326 145.372 14.138 148.417 14.138C151.489 14.138 153.705 16.4059 153.705 19.4476C153.705 22.5159 151.489 24.7838 148.417 24.7838ZM161.422 26.6515H159.152V7.12083H161.422V26.6515ZM170.517 24.5703C168.541 24.5703 167.472 23.5031 167.472 21.5554V14.2981H172.013V12.2436H167.472V9.20193H167.125L162.665 13.8978V14.2981H165.202V21.6354C165.202 24.7571 167.125 26.6515 170.224 26.6515H172.093V24.5703H170.517ZM175.944 14.218C177.066 12.8039 178.802 11.9501 180.885 11.9501C184.331 11.9501 186.468 14.2981 186.468 18.0334V26.6515H184.197V18.5671C184.197 15.6588 182.808 14.0046 180.324 14.0046C177.84 14.0046 175.944 16.1124 175.944 18.8072V26.6515H173.673V7.12083H175.944V14.218Z" fill="#2C2C2E"/>
</g>
</g>
</g>
</svg>
